<svg width="1102" height="414" viewBox="0 0 1102 414" fill="none" xmlns="http://www.w3.org/2000/svg">
<g opacity="0.15" filter="url(#filter0_f_132_10)">
<path d="M338.655 85.4516C348.192 72.2143 364.536 65.7708 380.4 64.8403C395.325 64.0999 410.42 65.0204 425.045 68.2121C425.035 83.6506 425.045 99.0891 425.045 114.528C420.646 115.068 416.688 112.887 412.549 111.846C405.502 109.725 397.914 109.595 390.727 111.086C386.008 112.106 381.27 114.548 378.981 119C374.902 127.024 375.332 136.259 374.752 144.984C387.938 145.054 401.113 145.004 414.288 145.014C414.308 159.852 414.288 174.691 414.298 189.529C401.723 189.549 389.137 189.539 376.562 189.539C376.562 242.818 376.572 296.097 376.562 349.376C359.228 349.376 341.904 349.376 324.58 349.376C324.57 296.097 324.58 242.818 324.58 189.539C317.253 189.539 309.915 189.539 302.588 189.539C302.588 174.7 302.588 159.852 302.588 145.014C309.915 145.014 317.243 145.014 324.56 145.024C324.59 124.583 326.14 102.511 338.655 85.4516Z" fill="white"/>
<path d="M460.832 85.7317C470.069 72.7946 485.803 66.1109 501.318 64.9703C516.742 63.9697 532.357 64.9703 547.501 68.1921C547.501 83.6305 547.501 99.079 547.501 114.517C542.373 115.158 537.845 112.356 532.996 111.306C525.679 109.595 517.862 109.615 510.634 111.746C506.226 113.067 502.267 116.188 500.618 120.571C497.479 128.285 497.369 136.8 497.259 145.014C510.424 145.024 523.59 145.004 536.755 145.024C536.755 159.862 536.755 174.7 536.755 189.539C524.17 189.549 511.594 189.529 499.008 189.549C499.018 242.828 499.018 296.097 499.018 349.376C481.695 349.376 464.361 349.376 447.037 349.376C447.037 296.097 447.037 242.828 447.047 189.549C439.709 189.529 432.382 189.549 425.045 189.539C425.045 174.7 425.045 159.852 425.045 145.014C432.372 145.014 439.709 145.014 447.037 145.014C446.817 124.693 448.546 102.751 460.832 85.7317Z" fill="white"/>
<path d="M583.049 85.9118C592.375 72.6246 608.58 65.9609 624.374 64.9103C639.609 64.0198 655.023 65.0104 669.958 68.2221C669.958 83.6506 669.958 99.0891 669.958 114.518C666.789 114.838 663.74 114.097 660.831 112.927C652.124 109.755 642.428 109.115 633.471 111.616C628.973 112.857 624.824 115.838 623.095 120.281C619.866 128.065 619.686 136.71 619.736 145.014C632.891 145.014 646.056 145.014 659.212 145.014C659.212 159.852 659.212 174.69 659.212 189.539C646.636 189.549 634.051 189.539 621.475 189.539C621.475 242.818 621.485 296.097 621.465 349.376C604.141 349.376 586.817 349.376 569.494 349.376C569.484 296.097 569.494 242.818 569.494 189.539C562.166 189.539 554.829 189.539 547.501 189.539C547.501 174.7 547.501 159.852 547.501 145.014C554.829 145.014 562.156 145.014 569.484 145.024C569.124 124.753 570.923 102.931 583.049 85.9118Z" fill="white"/>
<path d="M705.625 85.6416C715.102 72.3043 731.476 65.8208 747.381 64.8503C762.345 64.0999 777.48 65.0204 792.165 68.1921C792.165 83.6305 792.155 99.069 792.165 114.507C789.596 114.678 787.037 114.437 784.668 113.397C775.491 109.975 765.244 108.894 755.748 111.636C751.499 112.877 747.511 115.648 745.671 119.78C742.143 127.695 742.303 136.54 741.883 145.014C755.058 145.024 768.243 145.014 781.419 145.014C781.419 159.852 781.419 174.7 781.419 189.539C768.833 189.539 756.258 189.529 743.682 189.539C743.682 242.818 743.682 296.097 743.682 349.376C726.358 349.376 709.024 349.376 691.7 349.376C691.7 296.097 691.7 242.818 691.7 189.539C684.363 189.529 677.036 189.549 669.708 189.529C669.708 174.69 669.708 159.852 669.708 145.014C677.036 145.014 684.373 145.024 691.7 145.014C691.64 124.653 693.24 102.661 705.625 85.6416Z" fill="white"/>
<path d="M827.862 85.8018C837.249 72.5545 853.413 65.9309 869.218 64.9003C884.392 64.0198 899.727 65.0104 914.612 68.1921C914.632 83.6306 914.622 99.079 914.622 114.518C911.843 114.688 909.094 114.387 906.534 113.277C897.378 109.795 887.081 108.964 877.655 111.786C873.466 113.057 869.657 115.908 867.968 120.041C864.539 127.855 864.489 136.63 864.389 145.024C877.555 145.014 890.71 145.014 903.875 145.014C903.875 159.852 903.875 174.7 903.875 189.539C891.29 189.539 878.714 189.529 866.139 189.539C866.139 242.818 866.139 296.097 866.139 349.376C848.805 349.376 831.481 349.376 814.157 349.376C814.157 296.097 814.157 242.818 814.157 189.549C806.83 189.529 799.492 189.549 792.165 189.539C792.165 174.7 792.165 159.862 792.165 145.024C799.492 145.004 806.82 145.024 814.157 145.014C813.897 124.713 815.657 102.821 827.862 85.8018Z" fill="white"/>
<path d="M949.159 87.3226C957.786 74.1154 973.131 66.7413 988.515 65.2005C1004.72 63.7497 1021.16 64.9003 1037.08 68.2121C1037.08 83.6506 1037.08 99.0791 1037.08 114.508C1031.47 115.158 1026.53 111.906 1021.14 110.996C1013.12 109.555 1004.35 109.545 996.862 113.107C990.715 116.048 988.645 123.162 987.696 129.386C986.906 134.548 986.746 139.791 986.846 145.014C1000.01 145.024 1013.17 145.014 1026.33 145.014C1026.33 159.852 1026.33 174.7 1026.33 189.539C1013.75 189.539 1001.17 189.529 988.595 189.539C988.595 242.818 988.595 296.097 988.595 349.376C971.272 349.376 953.938 349.376 936.614 349.376C936.614 296.097 936.614 242.818 936.614 189.539C929.276 189.529 921.949 189.549 914.622 189.529C914.622 174.69 914.622 159.852 914.622 145.014C921.949 145.014 929.276 145.024 936.614 145.014C936.234 125.283 937.913 104.192 949.159 87.3226Z" fill="white"/>
<path d="M132.058 141.262C136.107 120.321 140.275 99.3993 144.434 78.4778C156.16 78.4778 167.885 78.4678 179.601 78.4878C175.503 99.4092 171.354 120.331 167.206 141.242C179.741 141.282 192.277 141.252 204.802 141.262C208.901 120.351 213.149 99.4793 217.128 78.5578C228.904 78.3677 240.67 78.5278 252.436 78.4778C248.247 99.3892 244.189 120.321 240 141.242C252.116 141.292 264.231 141.242 276.347 141.262C276.347 155.85 276.357 170.448 276.337 185.036C261.302 185.016 246.258 185.056 231.223 185.026C227.644 203.716 223.856 222.357 220.267 241.047C233.622 241.097 246.988 241.057 260.343 241.067C260.363 255.655 260.353 270.243 260.353 284.841C244.129 284.831 227.904 284.861 211.68 284.831C207.292 306.333 203.013 327.864 198.625 349.376C187.099 349.356 175.563 349.406 164.027 349.356C168.235 327.844 172.524 306.353 176.722 284.841C164.057 284.831 151.391 284.851 138.726 284.831C134.427 306.343 130.129 327.854 125.83 349.376C114.104 349.396 102.379 349.326 90.6528 349.416C94.9413 327.884 99.2897 306.363 103.658 284.851C90.7427 284.831 77.8373 284.841 64.9319 284.841C64.9119 270.253 64.9319 255.665 64.9219 241.067C80.7063 241.087 96.4907 241.037 112.275 241.097C116.024 222.447 119.573 203.756 123.321 185.106C109.266 184.936 95.2212 185.076 81.1661 185.036C81.1661 170.438 81.1661 155.85 81.1661 141.262C98.1301 141.262 115.094 141.262 132.058 141.262ZM158.379 184.786C154.47 203.776 150.732 222.807 146.923 241.827C159.798 241.817 172.664 241.807 185.529 241.837C189.318 222.827 193.007 203.806 196.715 184.786C183.94 184.786 171.154 184.786 158.379 184.786Z" fill="white"/>
</g>
<defs>
<filter id="filter0_f_132_10" x="-39.0781" y="-39.4162" width="1180.16" height="492.832" filterUnits="userSpaceOnUse" color-interpolation-filters="sRGB">
<feFlood flood-opacity="0" result="BackgroundImageFix"/>
<feBlend mode="normal" in="SourceGraphic" in2="BackgroundImageFix" result="shape"/>
<feGaussianBlur stdDeviation="20" result="effect1_foregroundBlur_132_10"/>
</filter>
</defs>
</svg>
