<?xml version="1.0" encoding="UTF-8"?>
<svg width="1024px" height="1024px" viewBox="0 0 1024 1024" version="1.1" xmlns="http://www.w3.org/2000/svg" xmlns:xlink="http://www.w3.org/1999/xlink">
    <!-- Generator: Sketch 53.2 (72643) - https://sketchapp.com -->
    <title>Avatar</title>
    <desc>Created with Sketch.</desc>
    <g id="Avatar" stroke="none" stroke-width="1" fill="none" fill-rule="evenodd">
        <rect fill="#FFFFFF" x="0" y="0" width="1024" height="1024"></rect>
        <path d="M295.558767,386.485053 C305.324275,372.930105 322.060761,366.33193 338.305899,365.379088 C353.588818,364.620912 369.045755,365.563509 384.021583,368.83186 C384.011346,384.640842 384.021583,400.449825 384.021583,416.258807 C379.517575,416.81207 375.463967,414.578526 371.226105,413.512982 C364.009455,411.340912 356.240041,411.207719 348.880082,412.734316 C344.04851,413.779368 339.196465,416.279298 336.852333,420.838596 C332.675889,429.055579 333.116053,438.512281 332.522343,447.446456 C346.024132,447.518175 359.515683,447.466947 373.007235,447.477193 C373.027708,462.671439 373.007235,477.865684 373.017472,493.05993 C360.140103,493.080421 347.252497,493.070175 334.375128,493.070175 C334.375128,547.62807 334.385365,602.185965 334.375128,656.74386 C316.625242,656.74386 298.885591,656.74386 281.14594,656.74386 C281.135704,602.185965 281.14594,547.62807 281.14594,493.070175 C273.642672,493.070175 266.129168,493.070175 258.625899,493.070175 C258.625899,477.87593 258.625899,462.671439 258.625899,447.477193 C266.129168,447.477193 273.632436,447.477193 281.125468,447.487439 C281.156177,426.555649 282.742816,403.953825 295.558767,386.485053 Z" id="Path" fill="#000000" fill-rule="nonzero"></path>
        <path d="M420.667831,386.77193 C430.126249,373.524351 446.238314,366.680281 462.12518,365.512281 C477.919918,364.487719 493.909147,365.512281 509.417266,368.811368 C509.417266,384.620351 509.417266,400.439579 509.417266,416.248561 C504.166002,416.904281 499.528921,414.035509 494.564275,412.959719 C487.071244,411.207719 479.066393,411.228211 471.665488,413.410526 C467.151244,414.762947 463.097636,417.959579 461.408633,422.447158 C458.194409,430.346526 458.081809,439.065544 457.969209,447.477193 C471.450524,447.487439 484.93184,447.466947 498.413155,447.487439 C498.413155,462.681684 498.413155,477.87593 498.413155,493.070175 C485.52555,493.080421 472.648181,493.05993 459.760576,493.080421 C459.770812,547.638316 459.770812,602.185965 459.770812,656.74386 C442.031161,656.74386 424.281274,656.74386 406.541624,656.74386 C406.541624,602.185965 406.541624,547.638316 406.55186,493.080421 C399.038356,493.05993 391.535087,493.080421 384.021583,493.070175 C384.021583,477.87593 384.021583,462.671439 384.021583,447.477193 C391.524851,447.477193 399.038356,447.477193 406.541624,447.477193 C406.316423,426.668351 408.087318,404.199719 420.667831,386.77193 Z" id="Path" fill="#000000" fill-rule="nonzero"></path>
        <path d="M545.817842,386.956351 C555.368386,373.350175 571.961562,366.526596 588.135046,365.450807 C603.735293,364.538947 619.519794,365.553263 634.81295,368.842105 C634.81295,384.640842 634.81295,400.449825 634.81295,416.248561 C631.568016,416.576421 628.44592,415.818246 625.467133,414.619509 C616.551244,411.371649 606.621953,410.71593 597.450154,413.277333 C592.843782,414.547789 588.595683,417.600982 586.824789,422.150035 C583.518438,430.121123 583.334183,438.973333 583.385365,447.477193 C596.856444,447.477193 610.33776,447.477193 623.808839,447.477193 C623.808839,462.671439 623.808839,477.865684 623.808839,493.070175 C610.93147,493.080421 598.043864,493.070175 585.166495,493.070175 C585.166495,547.62807 585.176732,602.185965 585.156259,656.74386 C567.416608,656.74386 549.676958,656.74386 531.937307,656.74386 C531.927071,602.185965 531.937307,547.62807 531.937307,493.070175 C524.434039,493.070175 516.920534,493.070175 509.417266,493.070175 C509.417266,477.87593 509.417266,462.671439 509.417266,447.477193 C516.920534,447.477193 524.423803,447.477193 531.927071,447.487439 C531.558561,426.729825 533.40111,404.38414 545.817842,386.956351 Z" id="Path" fill="#000000" fill-rule="nonzero"></path>
        <path d="M671.336362,386.679719 C681.040452,373.022316 697.807646,366.383158 714.093731,365.389333 C729.417595,364.620912 744.915478,365.563509 759.952724,368.811368 C759.952724,384.620351 759.942487,400.429333 759.952724,416.238316 C757.321973,416.412491 754.701459,416.166596 752.275437,415.101053 C742.878438,411.597053 732.386146,410.490526 722.661583,413.297825 C718.31112,414.568281 714.226804,417.406316 712.343309,421.637754 C708.729866,429.742035 708.893649,438.799158 708.46372,447.477193 C721.955272,447.487439 735.457061,447.477193 748.948613,447.477193 C748.948613,462.671439 748.948613,477.87593 748.948613,493.070175 C736.061007,493.070175 723.183638,493.05993 710.306269,493.070175 C710.306269,547.62807 710.306269,602.185965 710.306269,656.74386 C692.566619,656.74386 674.816732,656.74386 657.077081,656.74386 C657.077081,602.185965 657.077081,547.62807 657.077081,493.070175 C649.563577,493.05993 642.060308,493.080421 634.55704,493.05993 C634.55704,477.865684 634.55704,462.671439 634.55704,447.477193 C642.060308,447.477193 649.573813,447.487439 657.077081,447.477193 C657.015663,426.627368 658.653484,404.107509 671.336362,386.679719 Z" id="Path" fill="#000000" fill-rule="nonzero"></path>
        <path d="M796.506845,386.843649 C806.118808,373.278456 822.671038,366.49586 838.854758,365.440561 C854.393587,364.538947 870.096197,365.553263 885.338171,368.811368 C885.358643,384.620351 885.348407,400.439579 885.348407,416.248561 C882.502693,416.422737 879.687688,416.115368 877.067174,414.978105 C867.690647,411.412632 857.147174,410.562246 847.494265,413.451509 C843.205221,414.752702 839.305159,417.672702 837.575211,421.90414 C834.064132,429.905965 834.01295,438.891368 833.910586,447.487439 C847.391901,447.477193 860.86298,447.477193 874.344296,447.477193 C874.344296,462.671439 874.344296,477.87593 874.344296,493.070175 C861.456691,493.070175 848.579322,493.05993 835.701953,493.070175 C835.701953,547.62807 835.701953,602.185965 835.701953,656.74386 C817.952066,656.74386 800.212415,656.74386 782.472765,656.74386 C782.472765,602.185965 782.472765,547.62807 782.472765,493.080421 C774.969496,493.05993 767.455992,493.080421 759.952724,493.070175 C759.952724,477.87593 759.952724,462.681684 759.952724,447.487439 C767.455992,447.466947 774.95926,447.487439 782.472765,447.477193 C782.206619,426.688842 784.008222,404.271439 796.506845,386.843649 Z" id="Path" fill="#000000" fill-rule="nonzero"></path>
        <path d="M920.715108,388.400982 C929.549106,374.876772 945.261953,367.325754 961.015745,365.74793 C977.608921,364.262316 994.44777,365.440561 1010.74409,368.83186 C1010.74409,384.640842 1010.74409,400.439579 1010.74409,416.238316 C1005.00148,416.904281 999.944707,413.574456 994.427297,412.642105 C986.207482,411.166737 977.230175,411.156491 969.563124,414.80393 C963.267749,417.81614 961.148818,425.100772 960.176362,431.473544 C959.367688,436.760281 959.203905,442.128982 959.306269,447.477193 C972.787585,447.487439 986.258664,447.477193 999.739979,447.477193 C999.739979,462.671439 999.739979,477.87593 999.739979,493.070175 C986.852374,493.070175 973.975005,493.05993 961.097636,493.070175 C961.097636,547.62807 961.097636,602.185965 961.097636,656.74386 C943.357986,656.74386 925.608099,656.74386 907.868448,656.74386 C907.868448,602.185965 907.868448,547.62807 907.868448,493.070175 C900.354943,493.05993 892.851675,493.080421 885.348407,493.05993 C885.348407,477.865684 885.348407,462.671439 885.348407,447.477193 C892.851675,447.477193 900.354943,447.487439 907.868448,447.477193 C907.479466,427.272842 909.199178,405.675088 920.715108,388.400982 Z" id="Path" fill="#000000" fill-rule="nonzero"></path>
        <path d="M84.0034532,443.635088 C88.1491881,422.191018 92.4177595,400.767439 96.6760946,379.34386 C108.683371,379.34386 120.690647,379.333614 132.687688,379.354105 C128.490771,400.777684 124.242672,422.201263 119.994573,443.614596 C132.830997,443.655579 145.66742,443.624842 158.493607,443.635088 C162.690524,422.221754 167.040987,400.849404 171.115067,379.425825 C183.173525,379.231158 195.221747,379.395088 207.269969,379.34386 C202.980925,400.757193 198.824954,422.191018 194.53591,443.614596 C206.942405,443.665825 219.3489,443.614596 231.755396,443.635088 C231.755396,458.573193 231.765632,473.521544 231.745159,488.459649 C216.34964,488.439158 200.943885,488.48014 185.548366,488.449404 C181.883741,507.588211 178.004152,526.675789 174.329291,545.814596 C188.005098,545.865825 201.691141,545.824842 215.366948,545.835088 C215.38742,560.773193 215.377184,575.711298 215.377184,590.659649 C198.763535,590.649404 182.149887,590.68014 165.536238,590.649404 C161.042467,612.667228 156.661295,634.715789 152.167523,656.74386 C140.364974,656.723368 128.552189,656.774596 116.739404,656.723368 C121.048921,634.695298 125.440329,612.687719 129.739609,590.659649 C116.770113,590.649404 103.800617,590.669895 90.8311202,590.649404 C86.4294758,612.677474 82.0278314,634.705544 77.6261871,656.74386 C65.6189106,656.764351 53.6116341,656.692632 41.6043577,656.784842 C45.9957657,634.736281 50.448592,612.697965 54.9218911,590.669895 C41.6964851,590.649404 28.4813155,590.659649 15.2661459,590.659649 C15.2456732,575.721544 15.2661459,560.783439 15.2559096,545.835088 C31.4191572,545.855579 47.5824049,545.804351 63.7456526,545.865825 C67.584296,526.768 71.2182117,507.629193 75.0568551,488.531368 C60.6645015,488.357193 46.2823844,488.500632 31.8900308,488.459649 C31.8900308,473.511298 31.8900308,458.573193 31.8900308,443.635088 C49.2611716,443.635088 66.6323124,443.635088 84.0034532,443.635088 L84.0034532,443.635088 Z M110.955848,488.203509 C106.953422,507.649684 103.125015,527.136842 99.2249538,546.613754 C112.409414,546.603509 125.583638,546.593263 138.757862,546.624 C142.637451,527.157333 146.414676,507.680421 150.212374,488.203509 C137.130277,488.203509 124.037945,488.203509 110.955848,488.203509 Z" id="Shape" fill="#000000" fill-rule="nonzero"></path>
    </g>
</svg>